<?xml version="1.0" encoding="UTF-8" standalone="no"?>
<!-- Created with Inkscape (http://www.inkscape.org/) -->

<svg
   xmlns:dc="http://purl.org/dc/elements/1.1/"
   xmlns:cc="http://creativecommons.org/ns#"
   xmlns:rdf="http://www.w3.org/1999/02/22-rdf-syntax-ns#"
   xmlns:svg="http://www.w3.org/2000/svg"
   xmlns="http://www.w3.org/2000/svg"
   xmlns:sodipodi="http://sodipodi.sourceforge.net/DTD/sodipodi-0.dtd"
   xmlns:inkscape="http://www.inkscape.org/namespaces/inkscape"
   width="204mm"
   height="79mm"
   viewBox="0 0 204 79"
   version="1.1"
   id="svg4587"
   inkscape:version="0.92.4 (5da689c313, 2019-01-14)"
   sodipodi:docname="logo_admingate.svg">
  <defs
     id="defs4581" />
  <sodipodi:namedview
     id="base"
     pagecolor="#ffffff"
     bordercolor="#666666"
     borderopacity="1.0"
     inkscape:pageopacity="0.0"
     inkscape:pageshadow="2"
     inkscape:zoom="0.7"
     inkscape:cx="487.5562"
     inkscape:cy="306.67602"
     inkscape:document-units="mm"
     inkscape:current-layer="layer2"
     showgrid="false"
     inkscape:window-width="1920"
     inkscape:window-height="1017"
     inkscape:window-x="-8"
     inkscape:window-y="-8"
     inkscape:window-maximized="1"
     height="296mm" />
  <metadata
     id="metadata4584">
    <rdf:RDF>
      <cc:Work
         rdf:about="">
        <dc:format>image/svg+xml</dc:format>
        <dc:type
           rdf:resource="http://purl.org/dc/dcmitype/StillImage" />
        <dc:title></dc:title>
      </cc:Work>
    </rdf:RDF>
  </metadata>
  <g
     inkscape:groupmode="layer"
     id="layer2"
     inkscape:label="Layer 2"
     transform="translate(0,-218)">
    <g
       id="g872"
       transform="translate(-2.2513702,135.30841)">
      <path
         sodipodi:nodetypes="cccccscsscccscscsccccsscssscccsccccssccsscccsccsscccccsscccscccccsccsccccccssssscc"
         inkscape:connector-curvature="0"
         id="path4558"
         d="m 100.57125,130.73654 c -0.20421,-0.22532 -0.23859,-0.51371 -0.29218,-2.45101 l -0.0607,-2.19566 -0.984404,-0.21151 c -1.525807,-0.32783 -3.534692,-1.21214 -4.990481,-2.19681 -0.279316,-0.18893 -0.547793,-0.3435 -0.596617,-0.3435 -0.04886,0 -0.757893,0.66151 -1.575711,1.47002 -2.060531,2.03709 -1.789418,2.0754 -4.504652,-0.63651 -1.771258,-1.76909 -2.10913,-2.16352 -2.10913,-2.46224 0,-0.29358 0.281128,-0.63961 1.609737,-1.98138 l 1.609737,-1.62569 -0.27452,-0.44971 c -1.029302,-1.68619 -1.774112,-3.52762 -2.167744,-5.3594 l -0.211142,-0.98257 h -2.208044 c -2.08969,0 -2.220444,-0.0137 -2.439474,-0.25547 -0.211573,-0.23356 -0.234561,-0.50352 -0.267853,-3.14493 l -0.03645,-2.88946 c 0.01941,-0.38763 0.100631,-0.67863 0.597928,-0.6958 l 2.150632,-0.0607 2.150631,-0.0607 0.281283,-0.97192 c 0.419673,-1.4501 1.058126,-2.88856 1.940229,-4.371433 l 0.78898,-1.326327 -1.519006,-1.535186 c -1.327747,-1.341896 -1.519,-1.585701 -1.519,-1.936372 0,-0.356656 0.226429,-0.628573 2.03987,-2.449728 2.649067,-2.660329 2.396982,-2.629454 4.494078,-0.550519 l 1.511105,1.498024 1.509088,-0.764244 c 1.433173,-0.725789 3.479497,-1.477935 4.77947,-1.756729 l 0.59506,-0.127618 0.0377,-2.31077 c 0.0502,-3.08089 -0.26657,-2.833923 3.49187,-2.722518 1.56573,0.04641 2.94877,0.138964 3.07343,0.205678 0.38259,0.204752 0.458,0.654099 0.458,2.729068 0,2.305017 -0.18517,2.013617 1.57937,2.485315 1.41309,0.377754 2.92042,1.039594 4.00916,1.760342 0.50114,0.331759 0.95568,0.622639 1.01008,0.646399 0.0544,0.02379 0.77385,-0.618563 1.59879,-1.427395 2.04867,-2.008666 1.78233,-2.037948 4.43392,0.4875 2.11923,2.01842 2.32026,2.301194 2.08185,2.928268 -0.0652,0.171581 -0.77617,0.992241 -1.57985,1.823681 -0.86884,0.898849 -1.41722,1.556677 -1.35265,1.622607 0.0597,0.06101 0.43489,0.766931 0.83369,1.568762 0.78284,1.573985 1.24721,2.831675 1.49639,4.052825 0.1269,0.62192 0.21315,0.7937 0.44223,0.8808 0.15652,0.0595 1.14622,0.10819 2.19933,0.10819 2.63506,0 2.44306,-0.26603 2.44306,3.38521 0,2.94342 -0.0704,3.40088 -0.55214,3.58573 -0.10816,0.0415 -1.02592,0.0762 -2.03945,0.0771 -1.01353,0.001 -1.95505,0.0318 -2.09227,0.0687 -0.19371,0.052 -0.32634,0.32282 -0.59322,1.21119 -0.38225,1.27236 -1.33805,3.33677 -2.11265,4.56311 -0.27891,0.44155 -0.5071,0.84553 -0.5071,0.89774 0,0.0522 0.65929,0.72968 1.46509,1.50549 1.25641,1.20966 1.47518,1.47674 1.53599,1.8752 l 0.0709,0.46463 -2.05629,2.05628 c -1.8499,1.84991 -2.0975,2.05628 -2.46709,2.05628 -0.36301,0 -0.58959,-0.17691 -1.94759,-1.52058 l -1.53678,-1.52058 -1.00768,0.60563 c -1.48792,0.89427 -3.009,1.43566 -5.62844,2.00329 l -0.3341,0.0724 v 2.12929 c 0,2.09873 -0.005,2.13355 -0.2982,2.42748 l -0.2982,0.2982 h -2.96319 c -2.85669,0 -2.97151,-0.009 -3.19463,-0.25537 z m 6.16722,-9.45377 c 3.16003,-0.71446 6.0946,-2.48229 7.933,-4.77898 1.4683,-1.83432 2.42224,-4.07585 2.79074,-6.55762 0.23569,-1.58729 0.23706,-2.26151 0.008,-3.78326 -0.47599,-3.15797 -1.73589,-5.64481 -3.93274,-7.762579 -2.14856,-2.071221 -4.63454,-3.312814 -7.61402,-3.802751 -5.86328,-0.964129 -12.392011,2.956699 -14.579021,8.75542 -1.626521,4.31262 -0.921001,8.89084 1.962099,12.73236 2.249823,2.99771 5.370524,4.90073 8.977432,5.47447 0.7624,0.12128 3.42556,-0.0444 4.45482,-0.27706 z"
         style="fill:#63b0eb;fill-opacity:1;stroke:#63b0eb;stroke-width:0.1214897;stroke-opacity:1" />
      <path
         inkscape:connector-curvature="0"
         id="path4560"
         d="m 101.43334,118.41173 c -1.605984,-0.44029 -3.849269,-1.9395 -5.151765,-3.44299 l -0.625827,-0.72241 0.919651,-0.58708 c 2.785594,-1.77824 4.164611,-2.69587 4.243711,-2.82385 0.0489,-0.079 0.0493,-0.85733 0.001,-1.72957 l -0.0877,-1.58587 -0.40324,-0.40324 c -0.880539,-0.88054 -1.337722,-3.18076 -0.573948,-2.88768 0.150536,0.0578 0.182265,0.0273 0.12551,-0.12065 -0.271666,-0.70794 -0.369469,-1.67935 -0.229939,-2.28382 0.310706,-1.34605 1.589887,-2.879583 2.903687,-3.481059 0.57013,-0.26102 0.86682,-0.315129 1.72734,-0.315039 1.3745,1.42e-4 1.89848,0.166535 2.70571,0.859192 0.37026,0.317719 0.86285,0.723758 1.09465,0.902321 0.73407,0.565475 0.86823,1.024855 0.77224,2.644165 -0.0458,0.77265 -0.11533,1.53386 -0.1545,1.6916 -0.0609,0.24505 -0.0356,0.27546 0.17391,0.20899 0.36455,-0.11571 0.43344,0.22233 0.20526,1.00725 -0.27423,0.94333 -0.58494,1.50995 -1.03618,1.88965 -0.34962,0.29418 -0.39594,0.41461 -0.48474,1.26055 -0.054,0.51441 -0.10114,1.2742 -0.10474,1.68842 -0.008,0.90687 -0.17585,0.75524 3.00032,2.70848 1.21945,0.74992 2.21718,1.43332 2.21718,1.51867 0,0.23408 -1.51862,1.60674 -2.42232,2.1895 -1.03646,0.66836 -2.27781,1.28563 -3.38605,1.68371 -1.44117,0.51767 -1.36148,0.57581 -1.79116,-1.30677 l -0.37089,-1.62503 0.42575,-0.86098 c 0.42333,-0.85609 0.42458,-0.86345 0.21968,-1.29312 -0.46351,-0.97201 -2.13602,-0.87845 -2.52368,0.14117 -0.0887,0.23315 -0.0241,0.46616 0.31638,1.14228 l 0.42774,0.84939 -0.30731,1.57607 c -0.16902,0.86684 -0.30731,1.60305 -0.30731,1.63603 0,0.11453 -0.91467,0.0373 -1.5185,-0.12828 z"
         style="fill:#63b0eb;fill-opacity:1;stroke:#63b0eb;stroke-width:0.1214897;stroke-opacity:1" />
      <path
         inkscape:connector-curvature="0"
         id="path871"
         d="m 15.367998,136.23738 h 5.278573 l 8.953528,22.91836 h -6.080381 l -1.336348,-3.14042 h -9.020346 l 1.870887,-4.74403 h 5.679477 z"
         style="fill:#000000;fill-opacity:1;stroke:none;stroke-opacity:1" />
      <path
         inkscape:connector-curvature="0"
         id="path873"
         d="M 5.0781209,151.13766 H 8.753077 l -1.9711128,4.47676 H 3.4076864 Z"
         style="fill:#000000;fill-opacity:1;stroke:none;stroke-opacity:1" />
      <path
         inkscape:connector-curvature="0"
         id="path875"
         d="M 12.524083,156.02785 H 7.1661641 l -1.1525999,2.84392 h 5.4122078 z"
         style="fill:#000000;fill-opacity:1;stroke:none;stroke-opacity:1" />
      <path
         inkscape:connector-curvature="0"
         id="path877"
         d="m 47.406932,136.3376 h 4.443355 v 22.68451 h -4.409946 z"
         style="fill:#000000;fill-opacity:1;stroke:none;stroke-opacity:1" />
      <path
         sodipodi:nodetypes="ccccccccc"
         inkscape:connector-curvature="0"
         id="path879"
         d="m 47.440341,144.3891 c -9.42e-4,-0.75302 -1.730193,-1.50438 -2.609931,-1.74669 -1.185978,-0.2981 -2.370689,-0.29589 -4.247941,0.0452 -1.61951,0.4286 -3.86199,1.95679 -4.534493,4.84189 -0.393534,2.51599 -0.418292,4.13852 0.06682,6.61492 0.690619,2.57743 1.833912,3.79976 3.240643,4.47676 2.422375,0.95623 5.293979,0.70624 6.498195,-0.16536 0.922658,-0.63091 0.781257,-0.54892 1.568244,-1.33591 z"
         style="fill:none;stroke:#000000;stroke-width:0.26458332px;stroke-linecap:butt;stroke-linejoin:miter;stroke-opacity:1" />
      <path
         sodipodi:nodetypes="ccccccc"
         inkscape:connector-curvature="0"
         id="path881"
         d="m 47.373524,147.4961 c -0.900631,-0.99938 -2.218317,-1.38908 -3.274052,-1.35305 -1.797809,0.0108 -3.023426,0.99746 -3.69166,2.15487 -0.626141,1.26274 -0.459175,3.11591 -0.01669,4.91107 0.707177,1.7481 2.071882,2.3052 3.274053,2.3052 1.569,-0.0391 1.804224,-0.29705 3.741772,-1.5535 z"
         style="fill:none;stroke:#000000;stroke-width:0.26458332px;stroke-linecap:butt;stroke-linejoin:miter;stroke-opacity:1" />
      <path
         sodipodi:nodetypes="cccccccccccccccccccc"
         inkscape:connector-curvature="0"
         id="path915"
         d="m 58.19794,142.60173 h 4.293015 v 2.03793 c 0.731059,-0.76656 2.560349,-2.29972 5.258222,-2.29972 2.630627,0 3.488411,1.32073 4.535004,2.83313 0.94094,-0.41761 2.380008,-2.87226 5.748455,-2.87226 2.065783,0 4.65165,1.6554 4.735406,2.79172 v 13.78066 h -4.054501 v -10.90226 c 0,-0.40676 -0.716828,-1.89941 -2.639841,-1.89941 -1.901876,0 -3.277693,1.35819 -3.277693,1.77693 v 10.98977 h -4.919752 v -10.95805 c 0,-0.38254 -0.619349,-1.81616 -2.492443,-1.81616 -1.378348,0 -2.79349,1.28622 -2.79349,1.97068 v 10.85364 h -4.442497 z"
         style="fill:#000000;fill-opacity:1;stroke:none;stroke-opacity:1" />
      <path
         inkscape:connector-curvature="0"
         id="path917"
         d="m 89.556732,142.47861 h 4.393972 v 16.37645 h -4.373652 z"
         style="fill:#000000;fill-opacity:1;stroke:none;stroke-opacity:1" />
      <path
         sodipodi:nodetypes="ccccc"
         inkscape:connector-curvature="0"
         id="path921"
         d="m 94.376277,138.32576 c 0,-1.37675 -0.764384,-2.70118 -2.63437,-2.70118 -1.27061,0 -2.681269,0.96245 -2.681269,2.53092 0,2.03806 1.27482,2.74033 2.740327,2.74033 1.39155,0 2.575312,-0.76523 2.575312,-2.57007 z"
         style="fill:#000000;fill-opacity:1;stroke:none;stroke-opacity:1" />
      <path
         sodipodi:nodetypes="cccccccccsccc"
         inkscape:connector-curvature="0"
         id="path923"
         d="m 100.98612,143.0611 h 3.80859 v 1.9043 c 0.66068,-1.03963 2.6128,-1.94895 4.04087,-1.92374 4.4358,-0.0446 6.78435,2.09294 6.76178,3.42768 l 0.0334,12.40399 H 111.697 l 0.0334,-10.15733 c 0,-1.59034 -1.90957,-2.21095 -3.34288,-2.14008 -1.06743,0.006 -3.28923,1.35956 -3.33936,3.45258 l 0.0473,8.87667 H 100.911 Z"
         style="fill:#000000;fill-opacity:1;stroke:none;stroke-opacity:1" />
      <path
         sodipodi:nodetypes="ccccccc"
         inkscape:connector-curvature="0"
         id="path4628"
         d="m 139.2606,143.80153 4.18184,-2.22906 c -2.41201,-3.99213 -5.92163,-5.5632 -10.22946,-5.61395 -7.20648,-0.0251 -11.11012,7.90342 -11.07943,9.40216 h 4.9137 c 1.01943,-1.76571 2.47502,-4.37035 6.30747,-4.37035 3.23524,0 5.22307,2.12839 5.90588,2.8112 z"
         style="fill:#000000;fill-opacity:1;stroke:none;stroke-opacity:1" />
      <path
         sodipodi:nodetypes="ccccccccccc"
         inkscape:connector-curvature="0"
         id="path4630"
         d="m 132.45703,146.24656 h 10.87863 v 7.80757 c -2.61327,4.24542 -8.11181,5.29166 -10.32348,5.29166 -2.34779,-0.006 -8.83398,-1.71472 -10.3471,-8.16192 h 4.86645 c 2.3662,2.51835 3.58067,3.36147 5.81926,3.36147 2.31632,0 4.15768,-1.09365 5.21175,-2.3052 v -2.07134 h -6.06367 z"
         style="fill:#000000;fill-opacity:1;stroke:none;stroke-opacity:1" />
      <path
         sodipodi:nodetypes="cccccccccccccc"
         inkscape:connector-curvature="0"
         id="path4632"
         d="m 160.63988,158.86151 h 3.88606 v -11.74088 c 0,-2.0884 -2.2554,-4.65479 -6.69726,-4.83101 -4.11266,0 -5.03971,0.82533 -7.59496,2.76395 l 1.91351,2.62221 c 2.50579,-1.86273 2.19821,-2.07887 4.89006,-2.07887 3.40539,0.12376 3.61519,1.80439 3.61409,2.08659 v 3.14602 c -1.26629,-1.28225 -2.80452,-2.00709 -5.14962,-1.88989 -4.7456,0.31993 -5.51608,2.9288 -5.51608,5.18537 -0.16457,3.86665 3.55604,5.05844 5.48065,5.07906 2.39859,0.0178 3.79014,-0.97389 5.17355,-1.99619 z"
         style="fill:none;stroke:#000000;stroke-width:0.26458332px;stroke-linecap:butt;stroke-linejoin:miter;stroke-opacity:1" />
      <path
         sodipodi:nodetypes="ccccc"
         inkscape:connector-curvature="0"
         id="path4636"
         d="m 160.52876,154.09432 c 0,-1.69399 -2.13396,-2.22167 -3.22394,-2.22167 -1.12938,0 -3.02243,0.76994 -3.0736,2.35531 0.074,1.61126 2.01378,2.15486 3.10701,2.15486 1.19691,-0.006 3.19053,-0.67141 3.19053,-2.2885 z"
         style="fill:none;stroke:#000000;stroke-width:0.26458332px;stroke-linecap:butt;stroke-linejoin:miter;stroke-opacity:1" />
      <path
         inkscape:connector-curvature="0"
         id="path4644"
         d="M 178.31027,154.51193 Z"
         style="fill:none;stroke:#000000;stroke-width:0.26458332px;stroke-linecap:butt;stroke-linejoin:miter;stroke-opacity:1" />
      <path
         sodipodi:nodetypes="ccccccccccccccccc"
         inkscape:connector-curvature="0"
         id="path4646"
         d="m 178.31027,154.51193 c 0,0.909 1.04534,0.94 1.2107,0.94779 0.66326,-0.0287 1.00063,-0.25869 1.67727,-0.62601 l 1.0099,3.23641 c -1.76151,0.88444 -2.33431,1.0035 -4.34672,1.01581 -1.80947,0 -3.47855,-1.43509 -3.68527,-3.012 v -9.69744 h -3.13602 v -3.89788 h 3.1124 v -4.27586 h 4.08686 v 4.27586 h 3.2128 v 3.89788 h -3.16555 z"
         style="fill:#000000;fill-opacity:1;stroke:none;stroke-opacity:1" />
      <g
         id="g4681">
        <path
           style="fill:none;stroke:#000000;stroke-width:0.26458332px;stroke-linecap:butt;stroke-linejoin:miter;stroke-opacity:1"
           d="m 196.67696,142.11731 c 6.84958,0.0718 8.31505,4.95409 8.28536,10.3901 H 193.3695 c 0,1.955 1.70209,3.4745 4.30972,3.4745 1.84858,0 3.02569,-0.4198 4.47677,-1.87088 l 2.03793,2.53906 c -2.52178,2.35781 -4.30733,2.83973 -7.01583,2.83973 -2.28932,0 -8.65285,-2.09307 -8.65285,-8.15171 0,-4.9373 2.91922,-9.10621 8.15172,-9.2208 z"
           id="path4648"
           inkscape:connector-curvature="0"
           sodipodi:nodetypes="ccccccccc" />
        <path
           style="fill:none;stroke:#000000;stroke-width:0.26458332px;stroke-linecap:butt;stroke-linejoin:miter;stroke-opacity:1"
           d="m 193.11893,149.48392 h 7.684 c 0,-1.79186 -1.16486,-3.71671 -3.71671,-3.71671 -1.96924,0.0931 -3.96729,1.14243 -3.96729,3.71671 z"
           id="path4650"
           inkscape:connector-curvature="0"
           sodipodi:nodetypes="cccc" />
      </g>
      <path
         transform="scale(0.26458333)"
         inkscape:connector-curvature="0"
         id="path4683"
         d="m 743.86519,603.21844 c -0.12153,-0.0145 -0.50508,-0.0566 -0.85232,-0.0937 -2.70033,-0.28839 -6.23312,-1.20544 -9.34391,-2.42551 -6.19549,-2.42992 -11.41906,-6.04535 -15.09705,-10.44925 -4.66414,-5.58468 -6.81709,-12.25821 -6.46677,-20.04522 0.15106,-3.3579 0.50527,-5.89746 1.2328,-8.83883 1.58149,-6.39392 4.51347,-11.7705 8.71255,-15.97683 1.9829,-1.98632 3.75855,-3.35543 6.0942,-4.69894 4.83259,-2.77978 10.94879,-4.23241 16.74812,-3.97776 8.02683,0.35246 14.05282,2.33524 18.95017,6.23532 1.0041,0.79963 2.80656,2.61099 3.65824,3.6763 4.17451,5.22162 6.59901,12.46861 7.36096,22.00238 0.15263,1.90974 0.19829,2.98695 0.23482,5.54006 l 0.0386,2.699 h -21.88181 c -12.03499,0 -21.89347,0.0213 -21.90773,0.0473 -0.048,0.0876 0.0763,1.16533 0.21141,1.83258 1.03577,5.11686 5.45598,8.89626 11.67635,9.98359 1.44962,0.2534 1.99296,0.28996 4.26159,0.28677 2.31426,-0.003 3.22746,-0.0701 4.78655,-0.3502 4.0939,-0.73557 7.31438,-2.52221 10.95712,-6.07873 l 0.84393,-0.82395 0.13466,0.15952 c 0.1867,0.22117 8.00929,9.97032 8.09952,10.09428 0.0616,0.0846 -0.0562,0.21875 -0.74953,0.85372 -6.84455,6.26873 -12.5049,9.15043 -19.72072,10.03987 -1.68152,0.20727 -3.08795,0.28841 -5.39325,0.31114 -1.30215,0.0128 -2.46699,0.0115 -2.58852,-0.003 z m 4.73509,-0.97402 c 7.97119,-0.43789 13.3308,-2.55495 19.72342,-7.79078 1.04736,-0.85784 2.75247,-2.36875 2.75247,-2.43899 0,-0.0407 -6.72863,-8.47949 -7.01808,-8.80183 -0.0332,-0.037 -0.23324,0.11354 -0.5115,0.385 -3.41557,3.33207 -7.14828,5.3332 -11.22137,6.01586 -2.62907,0.44063 -6.17126,0.50462 -8.5863,0.15509 -7.69479,-1.11365 -12.92237,-6.05207 -13.32472,-12.58766 -0.031,-0.5035 -0.0571,-0.99358 -0.0581,-1.08907 l -0.002,-0.17362 h 21.91719 21.91719 l -0.038,-2.22549 c -0.0518,-3.03536 -0.19471,-5.19715 -0.52066,-7.87604 -1.6246,-13.35204 -6.97921,-21.76164 -16.33737,-25.6584 -3.51161,-1.46224 -7.4585,-2.26774 -12.25958,-2.502 -3.88496,-0.18955 -8.13803,0.43565 -11.79653,1.73409 -3.2343,1.14789 -6.00989,2.72856 -8.7222,4.96719 -0.8369,0.69075 -2.75811,2.62157 -3.51136,3.52892 -3.97575,4.78912 -6.54455,10.81844 -7.53288,17.68062 -0.61194,4.24886 -0.61324,8.18378 -0.004,11.64537 1.53795,8.73609 7.28715,15.99167 16.45102,20.76143 4.13814,2.15388 9.15323,3.76015 13.12705,4.20441 0.32988,0.0369 0.68501,0.077 0.78918,0.0891 0.44276,0.0516 3.69247,0.0358 4.76666,-0.0232 z"
         style="fill:#000000;fill-opacity:1;stroke:none;stroke-width:0.06313454;stroke-opacity:1" />
      <path
         transform="scale(0.26458333)"
         inkscape:connector-curvature="0"
         id="path4695"
         d=""
         style="fill:#000000;fill-opacity:1;stroke:none;stroke-width:0.06313454;stroke-opacity:1" />
      <path
         transform="scale(0.26458333)"
         inkscape:connector-curvature="0"
         id="path4697"
         d="m 178.59614,556.26782 c -0.0921,-0.0851 -0.30044,-0.27128 -0.46304,-0.41378 -0.16259,-0.1425 -0.29168,-0.26304 -0.28685,-0.26786 0.005,-0.005 0.15585,0.10091 0.33562,0.23496 0.33636,0.25082 0.42831,0.31062 0.44773,0.29121 0.006,-0.006 0.0235,-0.27152 0.0384,-0.58969 0.04,-0.84986 0.0394,-8.38565 -7.7e-4,-9.14991 -0.0464,-0.88296 -0.10362,-1.28497 -0.21373,-1.50132 -0.16157,-0.31746 -0.60376,-0.82327 -1.07058,-1.2246 -1.73354,-1.49033 -5.02506,-3.07645 -8.17298,-3.93839 -1.44604,-0.39594 -2.60212,-0.58787 -4.25224,-0.70594 -0.69832,-0.05 -3.4631,-0.0573 -4.27455,-0.0114 -1.14423,0.0648 -2.71884,0.19709 -3.24777,0.27291 -0.20478,0.0294 -0.22321,0.0277 -0.22321,-0.02 0,-0.0477 0.0156,-0.0502 0.9933,-0.1607 0.91501,-0.10339 1.77275,-0.17239 2.52232,-0.20289 0.91165,-0.0371 3.53636,-0.0365 4.02902,9.5e-4 2.14933,0.16332 4.07195,0.53428 5.78422,1.11606 2.77576,0.9431 5.42197,2.31241 6.85055,3.54487 0.3127,0.26977 0.71449,0.68681 0.89906,0.93316 0.16459,0.2197 0.39341,0.65925 0.45317,0.87054 0.0534,0.18863 0.057,0.82916 0.0367,6.39765 l -0.017,4.6789 z"
         style="fill:#000000;fill-opacity:1;stroke:none;stroke-width:0.02232143;stroke-opacity:1" />
      <path
         transform="scale(0.26458333)"
         inkscape:connector-curvature="0"
         id="path4699"
         d="m 178.79782,548.43129 c 0,-0.0586 5.5e-4,-0.0831 0.001,-0.0545 6.8e-4,0.0286 6.8e-4,0.0766 1e-5,0.10654 -6.7e-4,0.03 -0.001,0.007 -0.001,-0.0521 z"
         style="fill:#000000;fill-opacity:1;stroke:none;stroke-width:0.00394591;stroke-opacity:1" />
      <path
         transform="scale(0.26458333)"
         inkscape:connector-curvature="0"
         id="path4701"
         d="m 178.79783,548.57729 c 0,-0.0608 5.5e-4,-0.0851 0.001,-0.054 6.7e-4,0.0311 6.6e-4,0.0808 0,0.11049 -6.7e-4,0.0297 -0.001,0.004 -0.001,-0.0565 z"
         style="fill:#000000;fill-opacity:1;stroke:#000000;stroke-width:0.00394591;stroke-opacity:1" />
      <path
         transform="scale(0.26458333)"
         inkscape:connector-curvature="0"
         id="path4703"
         d="m 157.46867,602.04806 c -2.10107,-0.25576 -5.08801,-0.92912 -7.20098,-1.62334 -7.77895,-2.5558 -13.00233,-10.13165 -14.81192,-21.48282 -1.03524,-6.49377 -0.69301,-17.30047 0.71486,-22.5734 0.54076,-2.02533 2.29354,-5.74837 3.64082,-7.73338 2.7859,-4.10459 7.84412,-7.91169 12.48019,-9.39329 3.38112,-1.08054 11.4221,-1.58649 15.02602,-0.94546 3.78454,0.67316 8.75473,2.83264 10.70976,4.65325 l 1.15953,1.07981 v -14.34919 -14.34919 h 8.33376 8.33376 v 42.80522 42.80521 h -8.20749 -8.20749 v -3.31195 -3.31195 l -1.64513,1.53894 c -3.30032,3.08728 -6.62426,4.9429 -10.29461,5.74706 -1.76601,0.38692 -8.17206,0.67078 -10.03108,0.44448 z m 10.63914,-1.45077 c 3.58071,-0.91496 5.8125,-2.22968 8.9957,-5.29924 l 1.83091,-1.76553 v -5.3869 c 0,-2.96279 -0.072,-5.38689 -0.16,-5.38689 -0.088,0 -1.30965,0.73207 -2.71478,1.62682 -4.74223,3.01971 -6.68406,3.67648 -10.86996,3.67648 -2.61901,0 -4.69597,-0.46091 -6.56568,-1.45702 -1.85677,-0.98922 -4.42553,-3.65522 -5.45499,-5.6615 -0.47666,-0.92892 -0.90805,-1.64753 -0.95867,-1.59692 -0.28059,0.28059 2.00988,3.91136 3.2495,5.15097 2.64705,2.64705 5.67482,3.81701 9.87814,3.81701 4.16573,0 5.89775,-0.564 10.38801,-3.38268 1.46152,-0.91745 2.72449,-1.66808 2.8066,-1.66808 0.0821,0 0.14929,2.31832 0.14929,5.15182 v 5.15182 l -2.08344,1.81331 c -5.08646,4.42696 -8.11254,5.54419 -15.16825,5.6001 -10.80049,0.0856 -17.35627,-3.38204 -21.47671,-11.35998 -3.11784,-6.03672 -4.51452,-14.37869 -3.93695,-23.51443 0.52016,-8.22783 1.53439,-11.99935 4.37481,-16.26824 2.66007,-3.99783 7.20096,-7.72348 11.16903,-9.16381 3.57559,-1.29787 10.90374,-1.96637 14.99607,-1.36799 3.65739,0.53478 8.5542,2.56775 10.84474,4.50232 0.7419,0.62661 0.89252,0.94533 1.05198,2.22612 0.22892,1.83877 0.239,8.35218 0.0141,9.14481 l -0.16423,0.57894 -0.88388,-0.6623 c -2.05944,-1.54315 -5.97109,-3.16251 -7.55255,-3.12663 -0.69931,0.0159 -0.50197,0.10625 0.86029,0.394 2.14685,0.4535 5.43122,1.99892 6.85867,3.22729 0.57766,0.49709 1.1234,0.90381 1.21275,0.90381 0.0894,0 0.12811,-2.62631 0.0861,-5.83623 l -0.0763,-5.83623 -1.3019,-1.19664 c -2.04577,-1.88037 -6.59473,-3.88721 -10.2981,-4.54316 -2.17625,-0.38546 -7.61587,-0.32515 -10.71722,0.11882 -5.10246,0.73045 -8.88929,2.54636 -12.59528,6.03985 -2.58352,2.43538 -4.01029,4.38936 -5.4786,7.50301 -1.33156,2.82367 -1.74305,4.3689 -2.27655,8.5488 -1.3499,10.57639 -0.25997,20.53083 3.00352,27.43135 1.48065,3.13078 2.76231,4.94628 4.97013,7.04029 2.59044,2.45692 5.58355,3.93316 9.9782,4.92139 4.15704,0.9348 10.15862,0.8968 14.01546,-0.0887 z m 0.50121,-13.54384 c 1.65451,-0.30524 4.60533,-1.74512 7.73688,-3.77529 l 2.33598,-1.51439 v -12.10978 -12.10977 l -1.19956,-1.03902 c -2.87023,-2.4861 -7.63052,-4.01387 -11.54195,-3.70427 -4.15084,0.32854 -7.06822,1.57707 -9.83052,4.20709 -2.25821,2.15006 -3.29092,3.85419 -3.975,6.55936 -0.47449,1.87636 -0.52165,2.59077 -0.39938,6.05064 0.24994,7.07257 1.57044,11.2508 4.47311,14.15346 1.48806,1.48806 3.79663,2.80302 5.70942,3.25208 1.34963,0.31684 5.04616,0.33336 6.69102,0.0299 z M 151.7741,576.88018 c -0.21803,-1.05433 -0.54841,-3.03244 -0.73417,-4.39579 -0.19202,-1.40929 -0.34853,-2.04298 -0.36275,-1.46868 -0.0405,1.63671 1.116,8.15879 1.39692,7.87786 0.053,-0.053 -0.082,-0.95907 -0.3,-2.01339 z m -0.9567,-10.8521 c -0.0701,-0.17362 -0.12738,-0.0316 -0.12738,0.31567 0,0.34724 0.0573,0.4893 0.12738,0.31568 0.0701,-0.17362 0.0701,-0.45773 0,-0.63135 z m 1.78232,-6.06937 c 0.38614,-0.71735 1.57189,-2.17703 2.635,-3.24374 2.25567,-2.26332 5.04916,-3.80552 7.91606,-4.37023 1.05421,-0.20765 1.45498,-0.35778 0.99286,-0.37193 -2.45179,-0.0751 -6.36445,1.91889 -9.09771,4.63639 -2.31477,2.30141 -3.79698,4.90902 -4.02604,7.0829 -0.12288,1.16613 -0.0944,1.12153 0.37235,-0.58321 0.27797,-1.01524 0.82134,-2.43282 1.20748,-3.15018 z"
         style="fill:#000000;fill-opacity:1;stroke:#000000;stroke-opacity:1" />
      <path
         transform="scale(0.26458333)"
         inkscape:connector-curvature="0"
         id="path4705"
         d=""
         style="fill:#000000;fill-opacity:1;stroke:#000000;stroke-width:0.03156727;stroke-opacity:1" />
      <path
         transform="scale(0.26458333)"
         inkscape:connector-curvature="0"
         id="path4707"
         d="m 586.30431,601.09906 c -0.17362,-0.0251 -0.82706,-0.10934 -1.4521,-0.18724 -2.51613,-0.31361 -5.409,-1.20649 -7.82868,-2.41631 -5.74251,-2.87121 -9.0176,-7.49422 -9.52191,-13.44083 -0.15163,-1.78793 0.002,-5.50935 0.29735,-7.20204 0.75755,-4.34192 2.73028,-7.69806 5.94157,-10.10818 1.147,-0.86085 3.80955,-2.18231 5.5045,-2.73196 5.91937,-1.9196 13.23071,-2.07158 18.38784,-0.38223 3.25621,1.06666 5.93251,2.74738 8.88737,5.58129 0.5974,0.57295 1.123,1.04172 1.16799,1.04172 0.045,0 0.0818,-3.02799 0.0818,-6.72886 0,-5.58895 -0.0322,-6.85268 -0.19036,-7.45973 -0.92245,-3.54151 -4.2652,-5.90239 -9.80661,-6.92609 -1.42172,-0.26265 -1.91784,-0.28726 -5.72353,-0.2839 -3.83966,0.003 -4.26874,0.0259 -5.46402,0.28691 -2.73413,0.597 -3.29523,0.93577 -9.50097,5.73627 l -1.91519,1.48151 -3.28027,-4.49675 c -1.80415,-2.47322 -3.23365,-4.54112 -3.17666,-4.59534 0.40038,-0.38096 5.1361,-3.84365 6.44634,-4.71347 5.36487,-3.56153 9.6683,-4.78847 18.00528,-5.13344 5.17903,-0.2143 9.34491,0.31526 13.59584,1.72829 4.11171,1.36676 7.43352,3.4016 10.11391,6.19548 2.37478,2.47533 3.89108,5.37024 4.27198,8.15604 0.0916,0.67018 0.13505,8.12935 0.13505,23.20194 v 22.21422 h -6.81853 -6.81853 v -3.4074 -3.4074 l -1.66225,1.21576 c -6.08504,4.45058 -10.2427,6.23395 -15.69975,6.7342 -1.32479,0.12144 -3.30226,0.14508 -3.97747,0.0475 z m 11.00443,-9.76184 c 5.18398,-0.88764 8.92785,-3.67578 9.77807,-7.28193 0.39845,-1.68997 0.0783,-3.85038 -0.79162,-5.34204 -1.75839,-3.01514 -6.67417,-5.21296 -11.65712,-5.21187 -3.67434,7.6e-4 -7.47102,1.52091 -9.84899,3.94331 -2.43107,2.47649 -3.02859,5.65962 -1.60944,8.57392 0.48444,0.9948 2.17929,2.75207 3.2754,3.39602 3.12452,1.8356 7.17328,2.55278 10.8537,1.92259 z"
         style="fill:#000000;fill-opacity:1;stroke:#000000;stroke-opacity:1" />
      <path
         transform="scale(0.26458333)"
         inkscape:connector-curvature="0"
         id="path4709"
         d="m 743.88548,602.15482 c -5.24493,-0.37546 -12.25892,-2.91804 -17.34429,-6.28733 -2.18211,-1.44576 -3.37682,-2.39907 -5.06673,-4.04299 -4.31465,-4.1972 -6.98959,-9.19112 -7.96592,-14.87179 -0.90059,-5.23998 -0.27632,-12.30484 1.58661,-17.95553 2.82614,-8.57234 8.16856,-14.92322 15.4867,-18.41005 5.6748,-2.70384 12.57473,-3.50667 19.72625,-2.2952 15.48774,2.62361 23.20209,13.80991 23.69844,34.36424 l 0.0785,3.25143 h -21.92798 -21.92797 l 0.0642,0.69448 c 0.0353,0.38196 0.0942,1.0212 0.13082,1.42053 0.36582,3.98884 3.15133,7.81972 7.20467,9.90851 2.74424,1.41417 5.23828,1.9931 8.98938,2.08669 3.64984,0.091 6.21694,-0.22874 8.76291,-1.09163 2.70346,-0.91627 5.4209,-2.61432 7.77895,-4.86085 0.77923,-0.74237 0.79735,-0.75143 1.02279,-0.51084 0.12622,0.13471 1.6388,2.00638 3.36129,4.15927 1.72248,2.15288 3.20636,4.00185 3.29751,4.1088 0.14315,0.16798 -0.0358,0.36856 -1.31352,1.47247 -3.86543,3.33956 -7.24967,5.49027 -10.87862,6.91345 -2.81978,1.10584 -6.60066,1.80183 -10.36174,1.90739 -1.28478,0.0361 -2.50644,0.0807 -2.71478,0.0991 -0.20835,0.0184 -0.96773,-0.009 -1.68753,-0.0602 z m 15.6378,-37.2642 c -10e-4,-0.3646 -0.0831,-1.25953 -0.18159,-1.98873 -1.26651,-9.37429 -9.38949,-14.39285 -19.10892,-11.80592 -4.62152,1.23006 -8.12634,4.05163 -9.73485,7.83709 -0.70638,1.66237 -1.13853,3.81261 -1.14659,5.70503 l -0.004,0.91545 h 15.08916 15.08915 l -0.002,-0.66292 z"
         style="fill:#000000;fill-opacity:1;stroke:#000000;stroke-opacity:1" />
    </g>
  </g>
</svg>
