<?xml version="1.0" encoding="UTF-8" standalone="no"?>
<!-- Created with Inkscape (http://www.inkscape.org/) -->

<svg
   xmlns:dc="http://purl.org/dc/elements/1.1/"
   xmlns:cc="http://creativecommons.org/ns#"
   xmlns:rdf="http://www.w3.org/1999/02/22-rdf-syntax-ns#"
   xmlns:svg="http://www.w3.org/2000/svg"
   xmlns="http://www.w3.org/2000/svg"
   xmlns:sodipodi="http://sodipodi.sourceforge.net/DTD/sodipodi-0.dtd"
   xmlns:inkscape="http://www.inkscape.org/namespaces/inkscape"
   width="47mm"
   height="47mm"
   viewBox="0 0 47 47"
   version="1.1"
   id="svg4587"
   inkscape:version="0.92.4 (5da689c313, 2019-01-14)"
   sodipodi:docname="icon_admingate.svg">
  <defs
     id="defs4581" />
  <sodipodi:namedview
     id="base"
     pagecolor="#ffffff"
     bordercolor="#666666"
     borderopacity="1.0"
     inkscape:pageopacity="0.0"
     inkscape:pageshadow="2"
     inkscape:zoom="2.8"
     inkscape:cx="28.7553"
     inkscape:cy="83.281857"
     inkscape:document-units="mm"
     inkscape:current-layer="layer2"
     showgrid="false"
     inkscape:window-width="1920"
     inkscape:window-height="1017"
     inkscape:window-x="-8"
     inkscape:window-y="-8"
     inkscape:window-maximized="1"
     height="296mm" />
  <metadata
     id="metadata4584">
    <rdf:RDF>
      <cc:Work
         rdf:about="">
        <dc:format>image/svg+xml</dc:format>
        <dc:type
           rdf:resource="http://purl.org/dc/dcmitype/StillImage" />
        <dc:title />
      </cc:Work>
    </rdf:RDF>
  </metadata>
  <g
     inkscape:groupmode="layer"
     id="layer2"
     inkscape:label="Layer 2"
     transform="translate(0,-250)">
    <g
       id="g883"
       transform="translate(0.50000037,-0.01952808)">
      <path
         sodipodi:nodetypes="cccccscsscccscscsccccsscssscccsccccsccsscccsccsscccccsscccscccccsccsccccccssssscc"
         inkscape:connector-curvature="0"
         id="path4558"
         d="m 19.46971,296.32963 c -0.20421,-0.22532 -0.23859,-0.51371 -0.29218,-2.45101 l -0.0607,-2.19566 -0.984404,-0.21151 c -1.525807,-0.32783 -3.534692,-1.21214 -4.990481,-2.19681 -0.279316,-0.18893 -0.547793,-0.3435 -0.596617,-0.3435 -0.04886,0 -0.757893,0.66151 -1.575711,1.47002 -2.060531,2.03709 -1.789418,2.0754 -4.504652,-0.63651 -1.771258,-1.76909 -2.10913,-2.16352 -2.10913,-2.46224 0,-0.29358 0.281128,-0.63961 1.609737,-1.98138 l 1.609737,-1.62569 -0.27452,-0.44971 c -1.029302,-1.68619 -1.774112,-3.52762 -2.167744,-5.3594 L 4.921903,276.90366 H 2.713859 c -2.08969,0 -2.220444,-0.0137 -2.439474,-0.25547 -0.211573,-0.23356 -0.234561,-0.50352 -0.267853,-3.14493 l -0.03645,-2.88946 c 0.01941,-0.38763 0.100631,-0.67863 0.597928,-0.6958 l 2.150632,-0.0607 2.150631,-0.0607 0.281283,-0.97192 c 0.419673,-1.4501 1.058126,-2.88856 1.940229,-4.37143 l 0.78898,-1.32633 -1.519006,-1.53519 c -1.327747,-1.34189 -1.519,-1.5857 -1.519,-1.93637 0,-0.35665 0.226429,-0.62857 2.03987,-2.44973 2.649067,-2.66033 2.396982,-2.62945 4.494078,-0.55051 l 1.511105,1.49802 1.509088,-0.76425 c 1.433173,-0.72578 3.479497,-1.47793 4.77947,-1.75672 l 0.59506,-0.12762 0.0377,-2.31077 c 0.0502,-3.08089 -0.409888,-2.73453 3.49187,-2.72252 4.008069,-0.0563 3.538053,-0.10108 3.53143,2.93475 0,2.30501 -0.18517,2.01361 1.57937,2.48531 1.41309,0.37775 2.92042,1.03959 4.00916,1.76034 0.50114,0.33176 0.95568,0.62264 1.01008,0.6464 0.0544,0.0238 0.77385,-0.61856 1.59879,-1.42739 2.04867,-2.00867 1.78233,-2.03795 4.43392,0.4875 2.11923,2.01842 2.32026,2.30119 2.08185,2.92826 -0.0652,0.17159 -0.77617,0.99225 -1.57985,1.82369 -0.86884,0.89884 -1.41722,1.55667 -1.35265,1.6226 0.0597,0.061 0.43489,0.76693 0.83369,1.56876 0.78284,1.57399 1.24721,2.83168 1.49639,4.05283 0.1269,0.62192 0.21315,0.7937 0.44223,0.8808 0.15652,0.0595 1.14622,0.10819 2.19933,0.10819 2.63506,0 2.44306,-0.26603 2.44306,3.38521 0,2.94342 -0.0704,3.40088 -0.55214,3.58573 -0.10816,0.0415 -1.02592,0.0762 -2.03945,0.0771 -1.01353,10e-4 -1.95505,0.0318 -2.09227,0.0687 -0.19371,0.052 -0.32634,0.32282 -0.59322,1.21119 -0.38225,1.27236 -1.33805,3.33677 -2.11265,4.56311 -0.27891,0.44155 -0.5071,0.84553 -0.5071,0.89774 0,0.0522 0.65929,0.72968 1.46509,1.50549 1.25641,1.20966 1.47518,1.47674 1.53599,1.8752 l 0.0709,0.46463 -2.05629,2.05628 c -1.8499,1.84991 -2.0975,2.05628 -2.46709,2.05628 -0.36301,0 -0.58959,-0.17691 -1.94759,-1.52058 l -1.53678,-1.52058 -1.00768,0.60563 c -1.48792,0.89427 -3.009,1.43566 -5.62844,2.00329 l -0.3341,0.0724 v 2.12929 c 0,2.09873 -0.005,2.13355 -0.2982,2.42748 l -0.2982,0.2982 h -2.96319 c -2.85669,0 -2.97151,-0.009 -3.19463,-0.25537 z m 6.16722,-9.45377 c 3.16003,-0.71446 6.0946,-2.48229 7.933,-4.77898 1.4683,-1.83432 2.42224,-4.07585 2.79074,-6.55762 0.23569,-1.58729 0.23706,-2.26151 0.008,-3.78326 -0.47599,-3.15797 -1.73589,-5.64481 -3.93274,-7.76258 -2.14856,-2.07122 -4.63454,-3.31281 -7.61402,-3.80275 -5.86328,-0.96413 -12.392011,2.9567 -14.579021,8.75542 -1.626521,4.31262 -0.921001,8.89084 1.962099,12.73236 2.249823,2.99771 5.370524,4.90073 8.977432,5.47447 0.7624,0.12128 3.42556,-0.0444 4.45482,-0.27706 z"
         style="fill:#63b0eb;fill-opacity:1;stroke:#63b0eb;stroke-width:0.1214897;stroke-opacity:1" />
      <path
         inkscape:connector-curvature="0"
         id="path4560"
         d="m 20.3318,284.00482 c -1.605984,-0.44029 -3.849269,-1.9395 -5.151765,-3.44299 l -0.625827,-0.72241 0.919651,-0.58708 c 2.785594,-1.77824 4.164611,-2.69587 4.243711,-2.82385 0.0489,-0.079 0.0493,-0.85733 0.001,-1.72957 l -0.0877,-1.58587 -0.40324,-0.40324 c -0.880539,-0.88054 -1.337722,-3.18076 -0.573948,-2.88768 0.150536,0.0578 0.182265,0.0273 0.12551,-0.12065 -0.271666,-0.70794 -0.369469,-1.67935 -0.229939,-2.28382 0.310706,-1.34605 1.589887,-2.87958 2.903687,-3.48106 0.57013,-0.26102 0.86682,-0.31513 1.72734,-0.31504 1.3745,1.4e-4 1.89848,0.16654 2.70571,0.85919 0.37026,0.31772 0.86285,0.72376 1.09465,0.90233 0.73407,0.56547 0.86823,1.02485 0.77224,2.64416 -0.0458,0.77265 -0.11533,1.53386 -0.1545,1.6916 -0.0609,0.24505 -0.0356,0.27546 0.17391,0.20899 0.36455,-0.11571 0.43344,0.22233 0.20526,1.00725 -0.27423,0.94333 -0.58494,1.50995 -1.03618,1.88965 -0.34962,0.29418 -0.39594,0.41461 -0.48474,1.26055 -0.054,0.51441 -0.10114,1.2742 -0.10474,1.68842 -0.008,0.90687 -0.17585,0.75524 3.00032,2.70848 1.21945,0.74992 2.21718,1.43332 2.21718,1.51867 0,0.23408 -1.51862,1.60674 -2.42232,2.1895 -1.03646,0.66836 -2.27781,1.28563 -3.38605,1.68371 -1.44117,0.51767 -1.36148,0.57581 -1.79116,-1.30677 l -0.37089,-1.62503 0.42575,-0.86098 c 0.42333,-0.85609 0.42458,-0.86345 0.21968,-1.29312 -0.46351,-0.97201 -2.13602,-0.87845 -2.52368,0.14117 -0.0887,0.23315 -0.0241,0.46616 0.31638,1.14228 l 0.42774,0.84939 -0.30731,1.57607 c -0.16902,0.86684 -0.30731,1.60305 -0.30731,1.63603 0,0.11453 -0.91467,0.0373 -1.5185,-0.12828 z"
         style="fill:#63b0eb;fill-opacity:1;stroke:#63b0eb;stroke-width:0.1214897;stroke-opacity:1" />
      <path
         inkscape:connector-curvature="0"
         id="path4695"
         d=""
         style="fill:#000000;fill-opacity:1;stroke:none;stroke-width:0.01670435;stroke-opacity:1" />
      <path
         inkscape:connector-curvature="0"
         id="path4705"
         d=""
         style="fill:#000000;fill-opacity:1;stroke:#000000;stroke-width:0.00835217;stroke-opacity:1" />
    </g>
    <path
       style="fill:#ffffff;fill-opacity:1;stroke:#ffffff;stroke-width:0.17857143;stroke-opacity:1"
       d="M 94.939453 1.5019531 C 93.165473 1.4789889 90.938686 1.485205 88.117188 1.5078125 C 78.773588 1.5826785 78.573857 1.6019255 77.603516 2.5722656 C 77.325244 2.8505378 77.002437 3.3779432 76.886719 3.7421875 C 76.744191 4.1908236 76.650803 6.9372229 76.595703 12.259766 C 76.550476 16.628623 76.440706 20.255827 76.347656 20.429688 C 76.255621 20.601657 76.041101 20.742188 75.871094 20.742188 C 75.276286 20.742188 70.592619 21.995898 68.179688 22.800781 C 64.029959 24.185006 59.500711 26.087263 54.943359 28.359375 L 50.568359 30.541016 L 45.478516 25.488281 C 39.939089 19.988577 39.080549 19.319406 37.570312 19.316406 C 36.458459 19.314225 35.691737 19.649471 34.345703 20.724609 C 32.691535 22.045868 21.552811 33.362121 20.771484 34.515625 C 20.238902 35.301896 20.090904 35.690392 20.091797 36.300781 C 20.094048 37.919454 20.556386 38.508608 26.671875 44.683594 C 29.256291 47.293155 31.371094 49.492753 31.371094 49.570312 C 31.371094 49.647873 30.415359 51.328582 29.248047 53.306641 C 25.09819 60.338739 22.896877 65.257743 21.005859 71.724609 C 20.603786 73.099609 20.242515 74.324498 20.203125 74.447266 C 20.152982 74.603549 19.662356 74.670636 18.564453 74.669922 C 13.782441 74.667174 3.3811614 75.086506 2.8554688 75.302734 C 2.5358678 75.434193 2.1497655 75.796682 1.9726562 76.130859 C 1.6842142 76.675105 1.6616111 77.335402 1.7050781 83.957031 C 1.7597878 92.291349 1.9869325 98.760939 2.2578125 99.691406 C 2.5087524 100.55338 3.1400505 101.20352 3.9824219 101.46484 C 4.449991 101.60989 7.216754 101.71502 12.525391 101.79102 L 20.378906 101.9043 L 21.039062 104.88672 C 22.655339 112.18365 25.328485 118.94424 29.105469 125.2832 L 30.267578 127.23242 L 25.205078 132.42578 C 17.416912 140.41387 17.373662 140.48916 19.185547 142.92188 C 20.18959 144.26994 30.970589 155.19816 32.621094 156.54102 C 34.804725 158.31763 36.112229 158.65844 37.726562 157.87695 C 38.261187 157.61815 40.150967 155.93372 43.214844 152.98438 C 45.785227 150.51007 48.219243 148.19061 48.623047 147.83008 L 49.357422 147.17383 L 50.945312 148.18164 C 58.441251 152.93674 64.232996 155.45037 71.371094 157.04492 L 73.960938 157.62305 L 74.175781 164.58398 C 74.293758 168.41297 74.472987 172.13233 74.576172 172.84961 C 74.878856 174.95365 75.377661 175.60173 76.927734 175.90625 C 77.357888 175.99077 82.505279 176.06928 88.365234 176.08008 L 99.019531 176.09961 L 99.771484 175.25195 C 101.13043 173.7212 101.0841 174.05716 101.1582 165.4668 L 101.22461 157.7793 L 104.19922 157.09961 C 113.18008 155.05132 118.58415 152.98343 124.92969 149.16602 L 127.32617 147.72461 L 132.35547 152.68164 C 137.92947 158.1764 139.13739 159.13477 140.47852 159.13477 C 141.92093 159.13477 142.976 158.25305 150.70508 150.57031 L 157.80664 143.50977 L 157.61523 142.34961 C 157.2723 140.25756 157.04383 139.96073 151.42969 134.30469 C 148.54889 131.40238 146.19336 128.96321 146.19336 128.88281 C 146.19336 128.80244 146.9466 127.47615 147.86914 125.93555 C 151.60576 119.69557 154.23998 113.97978 156.27148 107.70703 C 157.14483 105.01037 157.59371 104.07632 158.11523 103.86914 C 158.28512 103.80165 161.79883 103.68242 165.92383 103.60352 C 170.15284 103.52268 173.61936 103.38225 173.87109 103.28125 C 174.55902 103.00525 175.11654 102.29969 175.4043 101.34375 C 175.86243 99.821832 176.0467 95.321618 175.9707 87.482422 C 175.89054 79.208877 175.82205 78.629147 174.8125 77.666016 C 173.89478 76.790484 173.656 76.761932 166.46094 76.626953 C 162.7288 76.556939 159.33164 76.438734 158.91211 76.365234 C 157.7162 76.155695 157.39004 75.617418 156.72656 72.757812 C 155.97442 69.516095 154.78558 65.869413 153.49414 62.84375 C 152.39158 60.260593 149.15992 53.69375 148.39648 52.484375 L 147.94727 51.773438 L 148.58594 50.845703 C 148.93709 50.335853 150.68655 48.356785 152.47266 46.447266 C 158.54885 39.951237 159.28349 38.992612 159.30469 37.546875 C 159.32824 35.938882 158.86498 35.337209 153.44531 29.9375 C 144.74456 21.268795 142.97094 19.90136 140.93555 20.283203 C 139.8675 20.483569 138.3571 21.695334 134.31836 25.587891 C 132.15764 27.670398 129.91829 29.765427 129.34375 30.244141 L 128.29883 31.113281 L 127.73633 30.773438 C 127.42694 30.586308 126.08957 29.736137 124.76367 28.882812 C 120.29557 26.007206 114.62148 23.495389 109.40625 22.085938 C 104.33946 20.716604 104.15811 20.633172 103.70508 19.4375 C 103.58241 19.113632 103.51367 16.526593 103.51367 12.167969 C 103.51367 4.4499569 103.44563 3.8487048 102.45898 2.8613281 C 101.50314 1.9047712 100.26139 1.5708459 94.939453 1.5019531 z M 89.064453 38.087891 C 91.774147 38.106 94.476826 38.372735 97.173828 38.888672 C 108.06266 40.971709 117.03568 45.709866 124.86133 53.509766 C 128.75961 57.395213 131.48456 60.988879 133.73828 65.21875 C 137.65526 72.570314 139.98367 82.406992 139.71094 90.449219 C 139.40532 99.461453 136.39273 109.4676 131.83203 116.61328 C 125.87052 125.95375 117.06154 132.83698 105.625 137.09375 C 101.36564 138.67911 97.254552 139.55629 91.90625 140.01758 C 88.818318 140.28391 83.398675 140.3873 82.085938 140.20508 C 78.349504 139.68643 72.548246 137.95416 68.662109 136.19727 C 62.83285 133.56192 57.634752 129.88179 52.978516 125.09375 C 50.399477 122.44171 49.230912 121.05963 47.408203 118.50977 C 42.123489 111.11676 39.037655 103.41882 37.886719 94.759766 C 37.544345 92.18395 37.496037 86.626465 37.792969 83.957031 C 39.038881 72.75627 43.820353 62.711294 51.810547 54.515625 C 57.52019 48.659153 63.765877 44.473664 71.103516 41.582031 C 77.113161 39.213739 83.103127 38.04805 89.064453 38.087891 z M 90.314453 51.314453 C 88.440015 51.276256 86.54253 51.339989 85.65625 51.525391 C 81.349841 52.426251 76.52153 56.382935 73.621094 61.386719 C 71.466908 65.103085 71.060887 68.851728 72.335938 73.253906 L 72.746094 74.671875 L 72.068359 74.671875 C 71.110294 74.671875 70.834591 75.13143 70.837891 76.720703 C 70.844557 79.89035 72.373234 83.612723 74.677734 86.074219 L 75.955078 87.439453 L 76.166016 91.634766 C 76.28208 93.942802 76.374647 96.689254 76.373047 97.736328 L 76.371094 99.640625 L 75.791016 100.13086 C 75.087345 100.72608 68.222443 105.25732 61.595703 109.50195 C 58.920506 111.2155 56.731569 112.65793 56.730469 112.70703 C 56.7262 112.89057 60.259549 116.7759 61.636719 118.10156 C 67.375042 123.62529 75.38261 128.19408 80.806641 129.03906 C 83.722307 129.49327 84.766072 129.33853 84.763672 128.45312 C 84.763235 128.28828 85.255738 125.59256 85.859375 122.46289 L 86.957031 116.77344 L 85.568359 113.94531 C 83.877216 110.50544 83.7493 109.82781 84.5625 108.5625 C 85.219071 107.54089 86.195636 106.89714 87.654297 106.52344 C 90.112293 105.89373 92.578799 107.00188 93.503906 109.15234 C 93.772711 109.7772 93.866682 110.26009 93.794922 110.64258 C 93.736581 110.95357 93.06499 112.48302 92.300781 114.04102 L 90.910156 116.87305 L 92.001953 121.62109 C 92.601642 124.23213 93.238104 126.83215 93.417969 127.40039 C 93.784658 128.55886 94.511787 129.31445 95.259766 129.31445 C 95.89768 129.31445 100.01921 127.89979 102.57812 126.80273 C 109.20784 123.96043 114.78879 120.29801 119.36719 115.7832 C 121.45442 113.72495 121.63966 113.35579 120.90234 112.75391 C 119.80295 111.85646 115.49472 109.04169 109.87695 105.55078 C 103.3918 101.52088 101.9546 100.40273 101.74609 99.224609 C 101.59526 98.372422 101.81099 92.921189 102.08594 90.654297 C 102.42384 87.868322 102.52146 87.644341 104.06055 86.078125 C 105.15187 84.967577 105.61877 84.316296 106.25586 83.017578 C 107.75952 79.95234 108.60524 76.614796 108.12695 75.634766 C 107.89771 75.165037 107.79892 75.119634 107.02734 75.146484 C 106.3113 75.171404 106.19188 75.129853 106.26758 74.878906 C 106.45931 74.243194 106.72353 71.513061 106.92188 68.111328 C 107.15974 64.03164 106.99972 62.149173 106.29297 60.669922 C 105.74338 59.519613 105.22239 58.945722 103.33789 57.417969 C 102.50462 56.74244 101.03911 55.537254 100.08203 54.740234 C 98.171108 53.148891 96.456888 52.15833 94.835938 51.710938 C 94.040008 51.491256 92.188892 51.352651 90.314453 51.314453 z "
       transform="matrix(0.26458333,0,0,0.26458333,0,250)"
       id="path856" />
  </g>
</svg>
