<?xml version="1.0" encoding="UTF-8" standalone="no"?>
<svg
   xmlns:dc="http://purl.org/dc/elements/1.1/"
   xmlns:cc="http://creativecommons.org/ns#"
   xmlns:rdf="http://www.w3.org/1999/02/22-rdf-syntax-ns#"
   xmlns:svg="http://www.w3.org/2000/svg"
   xmlns="http://www.w3.org/2000/svg"
   xmlns:sodipodi="http://sodipodi.sourceforge.net/DTD/sodipodi-0.dtd"
   xmlns:inkscape="http://www.inkscape.org/namespaces/inkscape"
   aria-hidden="true"
   focusable="false"
   data-prefix="fas"
   data-icon="user-circle"
   class="svg-inline--fa fa-user-circle fa-w-16"
   role="img"
   viewBox="0 0 496 512"
   version="1.1"
   id="svg4"
   sodipodi:docname="user-circle-solid.svg"
   inkscape:version="0.92.4 (5da689c313, 2019-01-14)">
  <metadata
     id="metadata10">
    <rdf:RDF>
      <cc:Work
         rdf:about="">
        <dc:format>image/svg+xml</dc:format>
        <dc:type
           rdf:resource="http://purl.org/dc/dcmitype/StillImage" />
      </cc:Work>
    </rdf:RDF>
  </metadata>
  <defs
     id="defs8" />
  <sodipodi:namedview
     pagecolor="#ffffff"
     bordercolor="#666666"
     borderopacity="1"
     objecttolerance="10"
     gridtolerance="10"
     guidetolerance="10"
     inkscape:pageopacity="0"
     inkscape:pageshadow="2"
     inkscape:window-width="1920"
     inkscape:window-height="1017"
     id="namedview6"
     showgrid="false"
     inkscape:zoom="0.4609375"
     inkscape:cx="-22.101695"
     inkscape:cy="256"
     inkscape:window-x="-8"
     inkscape:window-y="-8"
     inkscape:window-maximized="1"
     inkscape:current-layer="svg4" />
  <path
     fill="currentColor"
     d="M248 8C111 8 0 119 0 256s111 248 248 248 248-111 248-248S385 8 248 8zm0 96c48.6 0 88 39.4 88 88s-39.4 88-88 88-88-39.4-88-88 39.4-88 88-88zm0 344c-58.7 0-111.3-26.6-146.5-68.2 18.8-35.4 55.6-59.8 98.5-59.8 2.4 0 4.8.4 7.1 1.1 13 4.2 26.6 6.9 40.9 6.9 14.3 0 28-2.7 40.9-6.9 2.3-.7 4.7-1.1 7.1-1.1 42.9 0 79.7 24.4 98.5 59.8C359.3 421.4 306.7 448 248 448z"
     id="path2"
     style="fill:#ffffff;fill-opacity:1;stroke:#ffffff;stroke-opacity:1" />
  <path
     style="fill:#ffffff;fill-opacity:1;stroke:#ffffff;stroke-width:2.16949153;stroke-opacity:1"
     d="M 204.07923,498.98999 C 127.05799,485.07435 58.048054,431.91185 24.73989,360.83408 -7.424983,292.19604 -6.7506964,217.01564 26.65109,147.74237 57.860356,83.016261 116.36068,35.588359 188.89502,16.206535 c 21.69051,-5.795897 70.81715,-7.9002063 96.56008,-4.136091 102.9916,15.059362 187.33865,97.722076 205.95417,201.841416 6.39254,35.75446 2.61576,85.08265 -9.20646,120.24466 -28.76075,85.54116 -103.39644,149.58733 -192.40955,165.10991 -22.61244,3.94327 -63.08083,3.81275 -85.71403,-0.27644 z m 96.12225,-57.18875 c 30.79066,-8.94245 59.95709,-25.98202 82.20961,-48.02842 l 13.36604,-13.24223 -4.80436,-8.54823 c -8.01519,-14.26109 -30.10094,-33.67847 -47.68937,-41.92763 -22.57704,-10.58884 -41.51546,-12.80311 -63.83124,-7.4631 -21.70906,5.19483 -40.74375,5.19906 -62.41221,0.013 -28.91381,-6.91899 -55.98586,-0.93724 -82.99944,18.33925 -12.47451,8.90249 -33.34898,33.03125 -33.34898,38.54885 0,4.15649 25.33615,26.79674 42.86631,38.30509 18.58671,12.202 41.72208,21.85997 64.5573,26.94977 22.06709,4.91856 70.32183,3.37462 92.08634,-2.94637 z M 266.00847,278.76079 c 16.23622,-3.39695 34.76513,-13.78864 45.99773,-25.79723 45.48127,-48.62313 25.05071,-126.42889 -38.24661,-145.65486 -67.95246,-20.639924 -131.09081,42.49843 -110.45089,110.45089 13.54011,44.57786 57.21228,70.51808 102.69977,61.0012 z"
     id="path4520"
     inkscape:connector-curvature="0" />
</svg>
