<?xml version="1.0" encoding="UTF-8" standalone="no"?>
<svg
   xmlns:dc="http://purl.org/dc/elements/1.1/"
   xmlns:cc="http://creativecommons.org/ns#"
   xmlns:rdf="http://www.w3.org/1999/02/22-rdf-syntax-ns#"
   xmlns:svg="http://www.w3.org/2000/svg"
   xmlns="http://www.w3.org/2000/svg"
   xmlns:sodipodi="http://sodipodi.sourceforge.net/DTD/sodipodi-0.dtd"
   xmlns:inkscape="http://www.inkscape.org/namespaces/inkscape"
   aria-hidden="true"
   focusable="false"
   data-prefix="fas"
   data-icon="user-circle"
   class="svg-inline--fa fa-user-circle fa-w-16"
   role="img"
   viewBox="0 0 496 512"
   version="1.1"
   id="svg4"
   sodipodi:docname="user-circle-solid.svg"
   inkscape:version="0.92.4 (5da689c313, 2019-01-14)">
  <metadata
     id="metadata10">
    <rdf:RDF>
      <cc:Work
         rdf:about="">
        <dc:format>image/svg+xml</dc:format>
        <dc:type
           rdf:resource="http://purl.org/dc/dcmitype/StillImage" />
      </cc:Work>
    </rdf:RDF>
  </metadata>
  <defs
     id="defs8" />
  <sodipodi:namedview
     pagecolor="#ffffff"
     bordercolor="#666666"
     borderopacity="1"
     objecttolerance="10"
     gridtolerance="10"
     guidetolerance="10"
     inkscape:pageopacity="0"
     inkscape:pageshadow="2"
     inkscape:window-width="1920"
     inkscape:window-height="1017"
     id="namedview6"
     showgrid="false"
     inkscape:zoom="1.3037281"
     inkscape:cx="172.48059"
     inkscape:cy="297.06866"
     inkscape:window-x="-8"
     inkscape:window-y="-8"
     inkscape:window-maximized="1"
     inkscape:current-layer="svg4" />
  <path
     fill="currentColor"
     d="M248 8C111 8 0 119 0 256s111 248 248 248 248-111 248-248S385 8 248 8zm0 96c48.6 0 88 39.4 88 88s-39.4 88-88 88-88-39.4-88-88 39.4-88 88-88zm0 344c-58.7 0-111.3-26.6-146.5-68.2 18.8-35.4 55.6-59.8 98.5-59.8 2.4 0 4.8.4 7.1 1.1 13 4.2 26.6 6.9 40.9 6.9 14.3 0 28-2.7 40.9-6.9 2.3-.7 4.7-1.1 7.1-1.1 42.9 0 79.7 24.4 98.5 59.8C359.3 421.4 306.7 448 248 448z"
     id="path2"
     style="fill:#cccccc;fill-opacity:1;stroke:#ffffff;stroke-opacity:1" />
  <path
     style="fill:#cccccc;fill-opacity:1;stroke:none;stroke-width:2.16949153;stroke-opacity:1"
     d="M 204.07923,498.98999 C 127.05799,485.07435 58.048054,431.91185 24.73989,360.83408 -7.424983,292.19604 -6.7506964,217.01564 26.65109,147.74237 57.860356,83.016261 116.36068,35.588359 188.89502,16.206535 c 21.69051,-5.795897 70.81715,-7.9002063 96.56008,-4.136091 102.9916,15.059362 187.33865,97.722076 205.95417,201.841416 6.39254,35.75446 2.61576,85.08265 -9.20646,120.24466 -28.76075,85.54116 -103.39644,149.58733 -192.40955,165.10991 -22.61244,3.94327 -63.08083,3.81275 -85.71403,-0.27644 z m 96.12225,-57.18875 c 30.79066,-8.94245 59.95709,-25.98202 82.20961,-48.02842 l 13.36604,-13.24223 -4.80436,-8.54823 c -8.01519,-14.26109 -30.10094,-33.67847 -47.68937,-41.92763 -22.57704,-10.58884 -41.51546,-12.80311 -63.83124,-7.4631 -21.70906,5.19483 -40.74375,5.19906 -62.41221,0.013 -28.91381,-6.91899 -55.98586,-0.93724 -82.99944,18.33925 -12.47451,8.90249 -33.34898,33.03125 -33.34898,38.54885 0,4.15649 25.33615,26.79674 42.86631,38.30509 18.58671,12.202 41.72208,21.85997 64.5573,26.94977 22.06709,4.91856 70.32183,3.37462 92.08634,-2.94637 z M 266.00847,278.76079 c 16.23622,-3.39695 34.76513,-13.78864 45.99773,-25.79723 45.48127,-48.62313 25.05071,-126.42889 -38.24661,-145.65486 -67.95246,-20.639924 -131.09081,42.49843 -110.45089,110.45089 13.54011,44.57786 57.21228,70.51808 102.69977,61.0012 z"
     id="path4520"
     inkscape:connector-curvature="0" />
  <path
     style="fill:#a0a0a0;stroke:none;stroke-width:0.76703107"
     d="m 239.75716,281.28564 c -1.05466,-0.18438 -4.5063,-0.71801 -7.67031,-1.18585 -3.164,-0.46784 -8.81066,-1.84957 -12.54812,-3.07051 -28.57845,-9.33591 -50.19714,-32.89054 -58.18792,-63.39863 -2.15289,-8.2195 -2.36071,-10.08613 -2.41057,-21.65102 -0.0494,-11.44993 0.1488,-13.44529 2.07946,-20.93839 4.42832,-17.18677 11.82962,-30.33036 23.86395,-42.37878 24.01084,-24.03896 59.23701,-32.16969 91.72407,-21.17129 13.56418,4.59211 23.67507,10.7687 33.98832,20.76295 12.07861,11.70501 20.91572,27.45977 24.77357,44.16622 1.11531,4.82986 1.40397,9.07562 1.35585,19.94281 -0.0545,12.32307 -0.27478,14.60348 -2.0495,21.2234 -5.7219,21.34335 -18.97747,40.20491 -36.42588,51.83096 -11.26038,7.5029 -22.39401,12.25442 -33.94792,14.48803 -5.85918,1.13271 -21.06844,1.98788 -24.545,1.3801 z"
     id="path816"
     inkscape:connector-curvature="0" />
  <path
     style="fill:#ffffff;stroke:#b3b3b3;stroke-width:0.76703107"
     d="m 232.26699,279.86128 c -34.73289,-6.63651 -60.66283,-30.80709 -70.41547,-65.63774 -2.72194,-9.72113 -3.49273,-28.65621 -1.55566,-38.21602 6.86103,-33.86059 30.61484,-60.15415 62.75898,-69.46915 21.38126,-6.19605 45.05931,-3.93062 65.4088,6.25807 20.06974,10.04863 36.17063,28.66521 43.93978,50.80519 3.06937,8.74688 3.99966,15.41046 3.99966,28.64921 0,16.08596 -2.26216,25.79443 -9.2305,39.61441 -11.31963,22.44967 -33.41103,40.15213 -58.00959,46.48471 -9.49793,2.44511 -28.03497,3.20442 -36.896,1.51132 z"
     id="path818"
     inkscape:connector-curvature="0" />
  <path
     style="fill:#ffffff;stroke:#808080;stroke-width:0.76703107"
     d="m 219.04732,447.31921 c -22.4678,-2.53778 -53.86005,-14.42777 -75.47927,-28.5882 -10.68809,-7.00062 -23.44555,-17.36752 -33.62392,-27.32329 -8.49951,-8.31363 -9.80122,-9.91128 -9.79444,-12.02118 0.01,-3.07394 4.9801,-10.48346 13.7869,-20.55324 18.21913,-20.83194 40.04218,-33.74286 64.93825,-38.41868 9.79312,-1.83929 26.68129,-1.21819 39.02194,1.43511 12.89926,2.7734 19.81249,3.59331 30.29772,3.59331 10.4498,0 16.65767,-0.74812 32.21531,-3.88232 32.61113,-6.56975 60.51911,1.2509 88.77839,24.87837 11.03153,9.22341 17.84384,17.07193 23.83728,27.46314 l 3.83904,6.65599 -11.63022,11.39253 c -21.58898,21.14775 -40.82655,33.93088 -66.47294,44.1704 -17.0964,6.82589 -28.24024,9.41819 -48.32295,11.241 -10.26027,0.93128 -43.00832,0.90392 -51.39109,-0.0429 z"
     id="path820"
     inkscape:connector-curvature="0"
     sodipodi:nodetypes="csscssssssscssscc" />
</svg>
